<svg width="20" height="20" viewBox="0 0 20 20" fill="none" xmlns="http://www.w3.org/2000/svg">
<path fill-rule="evenodd" clip-rule="evenodd" d="M3.74756 6.68781C4.09273 6.68781 4.37256 6.96763 4.37256 7.31281V14.542C4.37256 15.6068 5.23598 16.4702 6.3008 16.4702H13.7002C14.7651 16.4702 15.6285 15.6068 15.6285 14.542V7.31281C15.6285 6.96763 15.9083 6.68781 16.2535 6.68781C16.5987 6.68781 16.8785 6.96763 16.8785 7.31281V14.542C16.8785 16.2971 15.4554 17.7202 13.7002 17.7202H6.3008C4.54562 17.7202 3.12256 16.2971 3.12256 14.542V7.31281C3.12256 6.96763 3.40238 6.68781 3.74756 6.68781Z" fill="#2B303B"/>
<path fill-rule="evenodd" clip-rule="evenodd" d="M8.38408 2.84187C9.33125 2.09308 10.6688 2.09308 11.616 2.84187L17.8879 7.80672C18.1586 8.02096 18.2043 8.414 17.9901 8.68467C17.7758 8.95533 17.3827 9.00108 17.1121 8.78683L10.8408 3.82247C10.8407 3.82238 10.8409 3.82255 10.8408 3.82247C10.3481 3.43316 9.65208 3.43296 9.15933 3.82238C9.15933 3.8224 9.15942 3.82234 9.15933 3.82238L2.88794 8.78683C2.6173 9.00108 2.22422 8.95533 2.00998 8.68467C1.79574 8.414 1.84146 8.02096 2.11211 7.80672L8.38408 2.84187Z" fill="#2B303B"/>
<path fill-rule="evenodd" clip-rule="evenodd" d="M14.7234 3.49445C15.0686 3.49445 15.3484 3.77427 15.3484 4.11945V6.08071C15.3484 6.42589 15.0686 6.70571 14.7234 6.70571C14.3782 6.70571 14.0984 6.42589 14.0984 6.08071V4.11945C14.0984 3.77427 14.3782 3.49445 14.7234 3.49445Z" fill="#2B303B"/>
<path fill-rule="evenodd" clip-rule="evenodd" d="M9.97858 11.4063H10.0244C10.3384 11.4063 10.6093 11.4062 10.8327 11.4237C11.0684 11.442 11.3032 11.4825 11.531 11.5923C11.913 11.7766 12.2212 12.0848 12.4055 12.4668C12.5153 12.6946 12.5558 12.9294 12.5742 13.1651C12.5916 13.3885 12.5916 13.6594 12.5916 13.9734V17.0952C12.5916 17.4403 12.3117 17.7202 11.9666 17.7202C11.6214 17.7202 11.3416 17.4403 11.3416 17.0952V13.9963C11.3416 13.6529 11.3412 13.4313 11.328 13.2622C11.3153 13.1 11.2938 13.0393 11.2796 13.0098C11.2182 12.8824 11.1154 12.7797 10.9881 12.7182C10.9585 12.704 10.8978 12.6825 10.7357 12.6698C10.5666 12.6567 10.3449 12.6562 10.0015 12.6562C9.65808 12.6562 9.43633 12.6567 9.26733 12.6698C9.10508 12.6825 9.04449 12.704 9.01491 12.7182C8.88758 12.7797 8.78483 12.8824 8.72341 13.0098C8.70916 13.0393 8.68766 13.1 8.67499 13.2622C8.66183 13.4313 8.66141 13.6529 8.66141 13.9963V17.0952C8.66141 17.4403 8.38158 17.7202 8.03638 17.7202C7.69119 17.7202 7.41138 17.4403 7.41138 17.0952V13.9734C7.41136 13.6594 7.41135 13.3885 7.42877 13.1651C7.44714 12.9294 7.48766 12.6946 7.59748 12.4668C7.78169 12.0848 8.08996 11.7766 8.47199 11.5923C8.69974 11.4825 8.93449 11.442 9.17016 11.4237C9.39366 11.4062 9.66458 11.4063 9.97858 11.4063Z" fill="#2B303B"/>
</svg>
